<svg width="41" height="41" viewBox="0 0 41 41" fill="none" xmlns="http://www.w3.org/2000/svg">
<g clip-path="url(#clip0_1_816)">
<mask id="mask0_1_816" style="mask-type:luminance" maskUnits="userSpaceOnUse" x="0" y="0" width="41" height="41">
<path d="M40.5 0.764404H0.5V40.7644H40.5V0.764404Z" fill="white"/>
</mask>
<g mask="url(#mask0_1_816)">
<path fill-rule="evenodd" clip-rule="evenodd" d="M20.465 7.95184C18.5167 7.95184 16.9372 9.5313 16.9372 11.4797C16.9372 13.428 18.5167 15.0075 20.465 15.0075C22.4134 15.0075 23.9929 13.428 23.9929 11.4797C23.9929 9.5313 22.4134 7.95184 20.465 7.95184ZM9.74975 11.4797C9.74975 5.56179 14.5471 0.764404 20.465 0.764404C26.3829 0.764404 31.1803 5.56179 31.1803 11.4797C31.1803 17.3976 26.3829 22.1949 20.465 22.1949C14.5471 22.1949 9.74975 17.3976 9.74975 11.4797ZM22.6753 30.1968C22.6753 26.2275 25.8935 23.0093 29.8627 23.0093H40.4303V30.1968H29.8627V40.7643H22.6753V30.1968ZM0.5 29.9573H11.3071V40.7644H18.4946V29.9573C18.4946 25.988 15.2764 22.7698 11.3071 22.7698H0.5V29.9573Z" fill="#77E769"/>
</g>
</g>
<defs>
<clipPath id="clip0_1_816">
<rect width="40" height="40" fill="white" transform="translate(0.5 0.764404)"/>
</clipPath>
</defs>
</svg>
