<svg width="20" height="20" viewBox="0 0 20 20" fill="none" xmlns="http://www.w3.org/2000/svg">
<g id="Icon">
<path id="Vector" d="M4.15243 5.9975C5.15943 5.9975 5.97577 5.18117 5.97577 4.17417C5.97577 3.16717 5.15943 2.35083 4.15243 2.35083C3.14544 2.35083 2.3291 3.16717 2.3291 4.17417C2.3291 5.18117 3.14544 5.9975 4.15243 5.9975Z" fill="white"/>
<path id="Vector_2" d="M7.69743 7.37917V17.495H10.8383V12.4925C10.8383 11.1725 11.0866 9.89417 12.7233 9.89417C14.3374 9.89417 14.3574 11.4033 14.3574 12.5758V17.4958H17.4999V11.9483C17.4999 9.22333 16.9133 7.12917 13.7283 7.12917C12.1991 7.12917 11.1741 7.96833 10.7549 8.7625H10.7124V7.37917H7.69743ZM2.5791 7.37917H5.72493V17.495H2.5791V7.37917Z" fill="white"/>
</g>
</svg>
