<svg width="256" height="256" viewBox="0 0 256 256" fill="none" xmlns="http://www.w3.org/2000/svg">
<path d="M74.6667 202.667H51.36C47.9954 202.676 44.6854 201.816 41.7512 200.17C38.8169 198.523 36.3581 196.146 34.6133 193.269C32.9377 190.38 32.0517 187.1 32.0442 183.76C32.0367 180.42 32.908 177.137 34.5707 174.24L76.7573 101.333" stroke="#0B1419" stroke-width="10" stroke-linecap="round" stroke-linejoin="round"/>
<path d="M117.333 202.667H204.832C208.18 202.641 211.466 201.754 214.373 200.091C217.279 198.429 219.709 196.046 221.429 193.173C223.082 190.292 223.951 187.028 223.951 183.707C223.951 180.385 223.082 177.121 221.429 174.24L208.352 151.627" stroke="#0B1419" stroke-width="10" stroke-linecap="round" stroke-linejoin="round"/>
<path d="M149.333 170.667L117.333 202.667L149.333 234.667" stroke="#0B1419" stroke-width="10" stroke-linecap="round" stroke-linejoin="round"/>
<path d="M88.4587 145.024L76.7573 101.333L33.0667 113.045" stroke="#0B1419" stroke-width="10" stroke-linecap="round" stroke-linejoin="round"/>
<path d="M99.6693 61.984L111.328 41.8027C113.002 38.8843 115.402 36.4481 118.295 34.7306C121.188 33.013 124.476 32.0724 127.84 32C131.178 31.9938 134.459 32.8657 137.353 34.5283C140.248 36.1909 142.654 38.5856 144.331 41.472L186.389 114.464" stroke="#0B1419" stroke-width="10" stroke-linecap="round" stroke-linejoin="round"/>
<path d="M142.699 102.752L186.389 114.464L198.091 70.7734" stroke="#0B1419" stroke-width="10" stroke-linecap="round" stroke-linejoin="round"/>
</svg>
