<svg width="25" height="25" viewBox="0 0 25 25" fill="none" xmlns="http://www.w3.org/2000/svg">
<g id="SVG">
<path id="Vector" d="M7.30861 19.0649H5.12361C4.80817 19.0659 4.49786 18.9852 4.22278 18.8309C3.94769 18.6765 3.71718 18.4536 3.55361 18.1839C3.39652 17.9131 3.31345 17.6056 3.31275 17.2925C3.31205 16.9793 3.39373 16.6715 3.54961 16.3999L7.50461 9.56494" stroke="white" stroke-width="2" stroke-linecap="round" stroke-linejoin="round"/>
<path id="Vector_2" d="M11.3086 19.0649H19.5116C19.8255 19.0625 20.1335 18.9793 20.406 18.8235C20.6785 18.6676 20.9064 18.4443 21.0676 18.1749C21.2225 17.9048 21.304 17.5988 21.304 17.2874C21.304 16.976 21.2225 16.67 21.0676 16.3999L19.8416 14.2799" stroke="white" stroke-width="2" stroke-linecap="round" stroke-linejoin="round"/>
<path id="Vector_3" d="M14.3086 16.0649L11.3086 19.0649L14.3086 22.0649" stroke="white" stroke-width="2" stroke-linecap="round" stroke-linejoin="round"/>
<path id="Vector_4" d="M8.60157 13.6609L7.50457 9.56494L3.40857 10.6629" stroke="white" stroke-width="2" stroke-linecap="round" stroke-linejoin="round"/>
<path id="Vector_5" d="M9.65259 5.87594L10.7456 3.98394C10.9025 3.71034 11.1275 3.48195 11.3988 3.32093C11.67 3.15991 11.9782 3.07173 12.2936 3.06494C12.6065 3.06436 12.9141 3.1461 13.1855 3.30197C13.4568 3.45784 13.6824 3.68234 13.8396 3.95294L17.7826 10.7959" stroke="white" stroke-width="2" stroke-linecap="round" stroke-linejoin="round"/>
<path id="Vector_6" d="M13.6866 9.69795L17.7826 10.796L18.8796 6.69995" stroke="white" stroke-width="2" stroke-linecap="round" stroke-linejoin="round"/>
</g>
</svg>
